<svg xmlns="http://www.w3.org/2000/svg" fill="none" viewBox="0 0 185 91">
  <path fill="#1D1D1B" d="M81.97 35.64c1.01 1.95 2.08 3.95 3.19 6l.63-1.18.95-1.78 1.16-2.18 1.26-2.37a461.54 461.54 0 0 1 2.43-4.52h.28a671.8 671.8 0 0 1 .87 7.9c.15 1.26.3 2.5.43 3.74.15 1.23.3 2.45.48 3.66a3.17 3.17 0 0 0-.5-.04h-1.02c-.17 0-.34.01-.52.04-.15-1.94-.31-3.82-.47-5.64-.16-1.82-.36-3.68-.59-5.57h-.04c-1 1.83-1.97 3.66-2.93 5.47a82.77 82.77 0 0 0-2.74 5.7h-.2c-.86-1.84-1.77-3.68-2.72-5.52-.94-1.84-1.89-3.73-2.85-5.65h-.04a2795.57 2795.57 0 0 1-.67 6.07l-.26 2.9c-.07.91-.1 1.66-.1 2.24a6.3 6.3 0 0 0-1.52 0 333.21 333.21 0 0 0 1.69-11.62c.16-1.28.3-2.51.42-3.68h.36c1 2.07 2 4.08 3.03 6.04l-.01-.01Zm28.2 9.26a4.2 4.2 0 0 0-.57-.04h-1.15c-.18 0-.37.02-.57.05a43.93 43.93 0 0 0-.99-2.7l-.64-1.58-.6-1.51-1.42-.04h-2.75l-1.32.04a96.53 96.53 0 0 0-1.26 3.24 34.54 34.54 0 0 0-.84 2.55 7.06 7.06 0 0 0-1.6 0 1080.62 1080.62 0 0 0 6.78-15.3h.4l1.13 2.74 1.23 2.99 1.26 2.99 1.18 2.76 1 2.29c.3.67.54 1.18.72 1.53h.02Zm-9.6-6.8 1.18.03 1.17.02h1.2l1.22-.04-2.4-5.55-2.37 5.55Zm23.16-5.9a24.54 24.54 0 0 0-.1-2.32l.45.08a2.43 2.43 0 0 0 1.08-.07 79.53 79.53 0 0 0-.24 4.1l-.08 2.48c-.04.86-.06 1.69-.07 2.49a7.93 7.93 0 0 1-.44 2.62 5.01 5.01 0 0 1-3.12 3.19 7.6 7.6 0 0 1-2.61.42c-2.17 0-3.74-.5-4.72-1.49-.98-1-1.47-2.56-1.47-4.7 0-.68.02-1.29.05-1.82a22 22 0 0 0 .06-1.63 111.47 111.47 0 0 0-.13-5.66 8.2 8.2 0 0 0 1.12.1c.16 0 .32 0 .47-.03l.46-.07-.09 1.25-.09 1.77a127.64 127.64 0 0 0-.06 6.02c.01.53.06 1.05.15 1.55s.23.98.42 1.44a3.55 3.55 0 0 0 2.2 2.02c.55.2 1.23.29 2.04.29a5 5 0 0 0 2-.35 3.83 3.83 0 0 0 2.15-2.23c.2-.5.34-1.01.42-1.55.1-.54.14-1.08.16-1.62l.02-1.48-.02-4.79Zm16.17 12.19c-.29.14-.63.26-1.02.37-.4.1-.84.2-1.33.3a9.77 9.77 0 0 1-4.7-.36 6.69 6.69 0 0 1-4.15-3.96c-.4-.97-.6-2.08-.6-3.31 0-1.24.2-2.35.6-3.32a6.92 6.92 0 0 1 4.24-3.99c1-.35 2.09-.52 3.29-.52a10.74 10.74 0 0 1 4.7 1c-.12.21-.22.49-.29.84l-.17.87-.13.04a6.19 6.19 0 0 0-2.69-1.74c-.43-.14-.9-.2-1.43-.2-.85 0-1.64.14-2.37.42-.73.27-1.36.7-1.9 1.27-.55.58-.97 1.3-1.27 2.2-.3.87-.46 1.92-.46 3.13s.15 2.25.46 3.14c.3.88.72 1.6 1.26 2.19.55.57 1.18 1 1.91 1.27a6.62 6.62 0 0 0 3.81.22 7.54 7.54 0 0 0 2.2-1.05l.76-.56.09.09-.2 1.29c-.13.11-.33.24-.62.38v-.01Zm15.07-11.67-.12-2.83c.19.03.37.06.54.07a3.88 3.88 0 0 0 1.04 0l.54-.07-.12 2.83a70.9 70.9 0 0 0-.05 2.83v3.76c0 .96.02 1.9.05 2.84l.13 2.75a12.65 12.65 0 0 0-2.13 0l.12-2.75c.04-.93.06-1.88.06-2.84v-1.97l-2.27-.03-2.26-.01h-2.27l-2.26.04v1.97c0 .96.02 1.9.05 2.84l.12 2.75a12.68 12.68 0 0 0-2.12 0l.12-2.75c.04-.93.05-1.88.05-2.84v-3.76c0-.96-.01-1.9-.05-2.83l-.12-2.83c.18.03.36.06.54.07a3.89 3.89 0 0 0 1.04 0l.54-.07-.12 2.83c-.03.93-.05 1.87-.05 2.83v.76a1840.5 1840.5 0 0 1 4.53.07 1840.5 1840.5 0 0 1 4.53-.07v-.76c0-.96-.02-1.9-.06-2.83Zm7.08-.03c-.03-.94-.07-1.87-.12-2.8.65.03 1.3.06 1.94.07a53.25 53.25 0 0 0 3.87 0l1.92-.07a3.47 3.47 0 0 0 0 1.31l-1.26-.09-1.21-.09a48.02 48.02 0 0 0-3.22-.1c-.01.46-.03.9-.06 1.33a100.67 100.67 0 0 0-.02 3.1l.01 1.23a61.8 61.8 0 0 0 3.1-.08l1.16-.07 1-.07a3.69 3.69 0 0 0 0 1.33 23.9 23.9 0 0 0-2.8-.16l-1.4-.03h-1.05v.42c-.02.16-.02.35-.02.58v2.17l.01 2.05.03 1.22h1.52a36.6 36.6 0 0 0 3.11-.12c.47-.03.88-.09 1.23-.16-.03.1-.05.21-.06.34v.33c0 .24.01.43.06.57-.65-.03-1.3-.04-1.94-.04h-3.94c-.65 0-1.3.01-1.97.04l.12-2.79c.04-.92.06-1.87.06-2.83v-3.76c0-.96-.02-1.9-.06-2.84Zm12.13.03-.12-2.83c.42.03.83.06 1.23.07a21.35 21.35 0 0 0 2.47-.02c.4-.04.82-.06 1.24-.06.6 0 1.18.06 1.73.18s1.03.3 1.44.58a2.95 2.95 0 0 1 1.33 2.7c0 .7-.15 1.3-.46 1.8-.31.5-.7.92-1.14 1.25a6.97 6.97 0 0 1-2.84 1.12 97.44 97.44 0 0 0 1.73 2.22 292.7 292.7 0 0 1 2.34 2.97 52.8 52.8 0 0 0 1.87 2.2 5.04 5.04 0 0 0-.65-.05h-1.28c-.22 0-.42.02-.62.05l-.99-1.38a85.11 85.11 0 0 0-4.62-5.82h-.82v1.6c0 .96.02 1.91.05 2.84l.13 2.76a12.68 12.68 0 0 0-2.13 0l.12-2.76c.04-.93.06-1.88.06-2.84v-3.76c0-.96-.02-1.9-.06-2.83Zm2.5 4.16a6.71 6.71 0 0 0 2.19-.13c.47-.1.92-.28 1.32-.53a3.03 3.03 0 0 0 1.4-2.66c0-.57-.1-1.04-.3-1.4a2.74 2.74 0 0 0-.82-.9c-.34-.21-.7-.36-1.08-.44a5.75 5.75 0 0 0-1.15-.12 18.75 18.75 0 0 0-2.1.1l-.09 2.39c-.03.78-.04 1.57-.04 2.36v1.24c.2.05.42.08.66.1ZM76.3 69.2c.36-.3.64-.69.82-1.2.19-.5.3-1.11.36-1.8.05-.7.07-1.49.07-2.35v-6c0-.96-.02-1.91-.05-2.83l-.12-2.83.54.07a3.88 3.88 0 0 0 1.04 0l.54-.07-.12 2.83a70.52 70.52 0 0 0-.05 4.86l.03 2.06.02 1.96.01 1.73a5 5 0 0 1-.31 1.8 4.45 4.45 0 0 1-2.3 2.45c-.55.24-1.13.36-1.77.36l-.17-.62c.61 0 1.1-.14 1.45-.42h.01Zm8.8-14.22c-.03-.93-.07-1.87-.12-2.8l1.94.08a53.28 53.28 0 0 0 3.87 0l1.92-.08a3.49 3.49 0 0 0 0 1.31 20.7 20.7 0 0 1-1.26-.09l-1.21-.08a47.86 47.86 0 0 0-3.22-.11c-.01.47-.03.9-.06 1.33a97.43 97.43 0 0 0-.02 3.1l.01 1.23a47.36 47.36 0 0 0 3.1-.08l1.16-.06 1-.08a3.62 3.62 0 0 0 0 1.34 24 24 0 0 0-2.8-.17l-1.4-.02-1.05-.01-.01.42v4.81l.03 1.22h1.52a36.6 36.6 0 0 0 3.11-.12c.47-.04.88-.1 1.23-.17-.03.1-.05.22-.06.34l-.01.34c0 .23.02.42.07.56-.65-.02-1.3-.04-1.94-.04h-3.94c-.65 0-1.3.02-1.97.04l.12-2.78c.04-.93.06-1.87.06-2.83v-3.76c0-.96-.02-1.91-.06-2.85Zm19.36 6.54a1414.3 1414.3 0 0 0-5.63-6.06 125.22 125.22 0 0 0-.06 5.57l.03 1.42.03 1.5a291 291 0 0 0 .12 3.24 6.3 6.3 0 0 0-1.56 0 33 33 0 0 0 .2-2.22l.1-1.78.08-1.93.06-1.87.02-1.64v-3.6c-.02-1.02-.03-1.77-.06-2.26h.35l2.82 3.09a548.35 548.35 0 0 0 8.14 8.73v-2.98c0-1.53-.01-3.02-.03-4.46-.03-1.45-.07-2.82-.14-4.1.28.07.53.1.73.1.18 0 .4-.03.7-.1l-.1 1.44a163.75 163.75 0 0 0-.25 5.88v1.31l.01 1.55.03 1.63c0 .55 0 1.06.02 1.53v1.96h-.3a217.62 217.62 0 0 0-5.3-5.96l-.01.01Zm11.35 2.92c.04-.93.06-1.88.06-2.84v-3.76c0-.96-.02-1.91-.06-2.83l-.12-2.83.55.07a3.88 3.88 0 0 0 1.04 0l.54-.07-.12 2.83a70.9 70.9 0 0 0-.06 2.83v1.2c0 .12.04.17.13.17.06 0 .16-.06.3-.2.51-.43 1.04-.93 1.6-1.48a73.8 73.8 0 0 0 3.34-3.55l1.58-1.8.46.07a3.88 3.88 0 0 0 .95 0l.52-.08a139.49 139.49 0 0 0-5.47 5.23c-.59.6-1.07 1.14-1.46 1.59a611.9 611.9 0 0 1 3.54 4.05 448 448 0 0 0 3.63 4.14 5.03 5.03 0 0 0-.65-.04h-1.25c-.2 0-.4.02-.59.04-.52-.6-1.1-1.28-1.72-2.05l-1.84-2.24-1.63-1.94c-.48-.58-.84-.98-1.07-1.22-.12-.11-.2-.17-.26-.17-.08 0-.1.04-.1.13v1.9a119.52 119.52 0 0 0 .17 5.6 12.7 12.7 0 0 0-2.13 0c.05-.9.09-1.82.12-2.75Zm14.69-9.43-.12-2.83.54.08a3.88 3.88 0 0 0 1.04 0l.54-.08-.12 2.83a70.9 70.9 0 0 0-.05 2.83v3.76c0 .96.02 1.91.05 2.84l.12 2.76a12.68 12.68 0 0 0-2.12 0l.12-2.76c.04-.93.05-1.87.05-2.84v-3.76c0-.96-.01-1.9-.05-2.83Zm14.43 6.51c-1.87-2.03-3.75-4.05-5.63-6.06a124.67 124.67 0 0 0-.05 5.57l.02 1.42.03 1.5a211.9 211.9 0 0 0 .13 3.24 6.3 6.3 0 0 0-1.56 0 32.13 32.13 0 0 0 .2-2.22 88.47 88.47 0 0 0 .19-3.7l.05-1.88.02-1.64-.01-3.6a48.49 48.49 0 0 0-.06-2.26h.35l2.83 3.09a584.52 584.52 0 0 0 8.13 8.73v-2.98c0-1.53 0-3.02-.03-4.46a100.5 100.5 0 0 0-.14-4.1c.29.07.53.1.74.1.17 0 .4-.03.7-.1a146.83 146.83 0 0 0-.34 7.32v2.86l.02 1.63.02 1.53.01 1.24v.72h-.3a219.15 219.15 0 0 0-5.3-5.96l-.02.01Zm11.41 3.63a3.43 3.43 0 0 0 1.7 1.27 3.56 3.56 0 0 0 2.54-.05 2.97 2.97 0 0 0 1.6-1.69c.14-.38.21-.8.21-1.23 0-.67-.17-1.2-.5-1.6a4.2 4.2 0 0 0-1.27-.98c-.51-.27-1.05-.5-1.64-.73a8.5 8.5 0 0 1-1.63-.81c-.5-.33-.93-.75-1.27-1.26a3.66 3.66 0 0 1-.51-2.06c0-.6.1-1.17.33-1.67.21-.5.52-.93.94-1.3.41-.37.9-.65 1.48-.85.58-.2 1.23-.3 1.95-.3.73 0 1.3.08 1.8.25.5.16.97.42 1.4.77-.13.25-.23.51-.32.79s-.17.63-.26 1.05h-.26c-.07-.2-.17-.43-.3-.67a2.58 2.58 0 0 0-1.24-1.18 3.06 3.06 0 0 0-2.15 0 2.53 2.53 0 0 0-1.47 1.42c-.14.33-.2.7-.2 1.09 0 .68.17 1.22.5 1.61.34.4.77.73 1.27 1s1.05.5 1.64.72c.58.2 1.12.46 1.63.77.5.3.93.7 1.27 1.18.33.49.5 1.13.5 1.93 0 .67-.11 1.3-.35 1.9a4.45 4.45 0 0 1-2.7 2.59 6.6 6.6 0 0 1-2.25.36c-.9 0-1.62-.12-2.18-.36a5.91 5.91 0 0 1-1.4-.82c.14-.33.23-.64.28-.9.05-.28.1-.62.14-1.05h.26c.11.26.27.53.46.8v.01Z"/>
  <path fill="#005FAA" d="M72.1 2.12c5.92 1.85 13.3 8.06 16.61 15.22C81.54 5.24 68.37 1.2 54.8 2.87 33.34 5.65 11.16 24.34 5.96 45.73 2.8 56.66 3.9 69.88 11.27 78.51c8.62 10.02 21.63 12.1 34.38 9.45 4.9-1.23 7.82-1.93 11.41-3.47-11.22 7.47-30.12 9.26-42.26 1.4C3.77 79.2-1 66.75.17 53.95 1.37 32.7 18.04 12.3 37.7 4.38 43.32 2 48.67.9 54.54.16c6.88-.58 12.4.43 17.56 1.96Z"/>
  <path fill="#005FAA" d="M27.96 79.7c-.59.19-1.32.44-2.4.49a3.6 3.6 0 0 1-2.03-.82c-1.08-.97-.8-2.69-.62-3.84.18-.73.49-1.34.97-2.07C28.9 65.45 38.24 58.74 47 55.27h.34c-3.31 9.46-8.3 20.4-19.38 24.42Zm26.62-28.74c.9-3.14 2.2-6.13 3.17-9.19 4-11.13 6.55-22.76 11.59-33.4-.07-.28-.42-.07-.48-.35-17.45-.9-33.1 4.32-44.55 17.88-7.31 8.5-8.62 22.9-3.3 32.7.06 0 .13-.13.2-.13-3.66-7.1-2.23-17.16 1.35-24.27 9.26-17.06 26.92-26.74 46.3-25.48-12.7 12.52-14.42 29.85-21.04 45.09-2.82 1.32-5.65 2.64-8.41 3.97C32.38 61.82 21.56 68.26 21.98 77c.02.44.1.84.19 1.3.64 2.3 2.73 2.57 4.34 2.5 4.02-.42 9.52-3.27 13.52-6.96 6.9-5.99 10.55-14.34 14.28-21.92 4-1.25 8.2-2.09 12.55-2.65.82.21 1.72-.9 1.17-1.53-4.41 1.32-9.17 2.16-13.45 3.2"/>
</svg>
