<svg xmlns="http://www.w3.org/2000/svg" xmlns:xlink="http://www.w3.org/1999/xlink" width="147.149" height="69.295" viewBox="0 0 147.149 69.295">
  <defs>
    <clipPath id="clip-path">
      <path id="Pfad_831" data-name="Pfad 831" d="M0-135.984H147.149v-69.295H0Z" transform="translate(0 205.279)" fill="none"/>
    </clipPath>
  </defs>
  <g id="logo_header" transform="translate(0 205.279)">
    <g id="Gruppe_266" data-name="Gruppe 266" transform="translate(0 -205.279)" clip-path="url(#clip-path)">
      <g id="Gruppe_265" data-name="Gruppe 265" transform="translate(0 0)">
        <path id="Pfad_830" data-name="Pfad 830" d="M-280.107-119.292v1.407c0,1.983-1.023,3.2-2.686,3.2-1.759,0-2.878-.7-2.878-3.262v-9.4c0-2.558,1.119-3.262,2.878-3.262,1.6,0,2.686.959,2.686,3.933h4.413c-.16-5.244-2.59-7.834-7.1-7.834-4.285,0-7.291,2.047-7.291,7.739v8.25c0,5.692,3.006,7.739,7.291,7.739a5.47,5.47,0,0,0,4.125-2.238l.671,1.918h2.3v-11.831h-7.515v3.645Zm-140.519-56.545h144.931v-4.243H-420.626Zm4.177,51.587h-6.394v3.9h6.394v6.394h3.9v-6.394h6.394v-3.9h-6.394v-6.394h-3.9Zm7.151-40.442v16.149c0,2.207-.991,3.358-3.134,3.358s-3.1-1.151-3.1-3.358v-16.149h-4.413v16.18c0,5.084,2.974,7.227,7.515,7.227s7.547-2.143,7.547-7.227v-16.18Zm9.485,46.488-4.349.927c1.183,4.541,3.965,6.491,7.547,6.491,4.637,0,7.355-2.622,7.355-6.587,0-7.227-9.849-7.483-9.849-10.968a2.264,2.264,0,0,1,2.43-2.526c1.535,0,2.494.927,3.23,3.1l3.965-1.151a6.865,6.865,0,0,0-7.1-5.6c-4.573,0-6.939,2.494-6.939,6.46,0,6.46,9.849,6.523,9.849,10.872a2.593,2.593,0,0,1-2.718,2.75c-1.311,0-2.91-.991-3.422-3.773m3.378-27.3v-6.076h5.852v-3.9h-5.852v-5.309h7.674v-3.9h-12.087v23.088h12.407v-3.9Zm22.281,11.312h-14.2v3.9h4.952v19.186h4.413v-19.186h4.836Zm4.5-7.411-6.14-12.151,5.6-10.936h-4.733l-3.325,6.907-3.326-6.907h-4.733l5.66,10.936-6.2,12.151h4.765l3.837-8.154,3.837,8.154Zm-3.109,14.83v8.25c0,5.692,3.006,7.739,7.291,7.739s7.291-2.047,7.291-7.739v-8.25c0-5.692-3.006-7.739-7.291-7.739s-7.291,2.047-7.291,7.739m4.413-.576c0-2.558,1.119-3.262,2.878-3.262s2.878.7,2.878,3.262v9.4c0,2.558-1.119,3.262-2.878,3.262s-2.878-.7-2.878-3.262Zm6.781-23.944,4.605,9.689H-352l-6.619-13.782,5.948-9.306H-357.5l-5.724,9.529h-.064v-9.529h-4.413v23.088h4.413v-7.067Zm11.142,17.1h-4.413v23.088h11.422v-3.9h-7.009Zm2.129-33.579h3.643V-171.6h-3.643Zm6.9.069h3.643v-3.828h-3.643Zm-1.62,26.419c4.541,0,7.547-2.143,7.547-7.227v-16.18h-4.413v16.149c0,2.207-.991,3.358-3.134,3.358s-3.1-1.151-3.1-3.358v-16.149h-4.413v16.18c0,5.084,2.974,7.227,7.515,7.227m8.362,7.091h-6.2v23.088h6.459c4.669,0,7.739-2.078,7.739-6.651,0-2.878-.959-4.157-3.389-5.692a5.436,5.436,0,0,0,2.846-4.8c0-3.965-2.718-5.948-7.451-5.948m-1.79,12.791h1.535c2.3,0,3.837,1.087,3.837,3.294,0,2.015-1.215,3.358-3.518,3.358h-1.855Zm1.759-9.146c2.078,0,3.07,1.087,3.07,2.782,0,1.567-1.311,2.718-3.294,2.718h-1.535v-5.5Zm2.229-11.057h11.512v-3.9h-7.1v-19.187h-4.413Zm21.614,7.411h-12.088v23.088h12.407v-3.9h-7.994v-6.076h5.852v-3.9h-5.852v-5.308h7.674Zm-7.642-7.411h11.512v-3.9h-7.1v-19.187h-4.413Zm17.689,7.411h-6.4v23.088h4.413v-9.4h2.11l3.837,9.4h4.733l-4.349-10.3c2.462-.928,3.485-3.006,3.485-5.884,0-4.349-2.526-6.907-7.835-6.907m-1.983,3.646h2.27c1.95,0,3.134.959,3.134,3.2s-1.183,3.2-3.134,3.2h-2.27Z" transform="translate(422.843 180.081)" fill="#ad926b"/>
      </g>
    </g>
  </g>
</svg>
